<svg width="191" height="52" viewBox="0 0 191 52" fill="none" xmlns="http://www.w3.org/2000/svg">
<path d="M9.375 15.0391V13.2812L7.61719 11.4414L9.96094 7.42188H13.4766V10.3516H10.0781L13.4766 13.2812V22.0703C13.4766 24.0234 12.5 25 10.5469 25H4.6875C2.73438 25 1.75781 24.0234 1.75781 22.0703V13.2812L0 11.4414L2.34375 7.42188H5.85938V10.3516H2.46094L5.85938 13.2812V22.0703H9.375V17.9688H6.44531V15.0391H9.375ZM28.7109 22.0703C28.7109 24.0234 27.7344 25 25.7812 25H19.9219C17.9688 25 16.9922 24.0234 16.9922 22.0703V13.2812L15.2344 11.4414L17.5781 7.42188H21.0938V10.3516H17.6953L21.0938 13.2812V22.0703H24.6094V10.3516C24.6094 8.39844 25.5859 7.42188 27.5391 7.42188H33.3984C35.3516 7.42188 36.3281 8.39844 36.3281 10.3516V25H32.2266V10.3516H28.7109V22.0703ZM39.8438 25V10.3516H36.9141V7.42188H41.0156C42.9688 7.42188 43.9453 8.39844 43.9453 10.3516V25H39.8438ZM46.2891 22.0703H47.4609V13.2812L45.7031 11.4414L48.0469 7.42188H49.8047V6.25H51.5625V10.3516H48.1641L51.5625 13.2812V25H46.2891V22.0703ZM42.7734 4.49219C42.7734 3.32031 43.125 2.44141 43.8281 1.85547C44.5312 1.26953 45.5859 0.976562 46.9922 0.976562C48.1562 0.976562 49.2695 1.26953 50.332 1.85547C51.3867 2.44141 52.3828 3.32031 53.3203 4.49219V5.66406H42.7734V4.49219ZM46.9922 3.32031C46.5234 3.32031 46.1719 3.41797 45.9375 3.61328C45.7031 3.80859 45.5859 4.10156 45.5859 4.49219H51.0703C50.6641 4.10156 50.1172 3.80859 49.4297 3.61328C48.7422 3.41797 47.9297 3.32031 46.9922 3.32031ZM66.7969 12.6953C66.7969 13.4766 66.2109 13.8672 65.0391 13.8672H62.1094V11.5234H62.6953V10.3516H59.1797V13.2812C59.1797 14.2812 60.0234 14.9766 61.7109 15.3672L63.3164 15.7422C63.4727 15.5625 63.7305 15.3281 64.0898 15.0391H66.7969V17.4531C66.7969 18.0156 66.3945 18.4258 65.5898 18.6836L66.7969 19.2578V22.0703C66.7969 24.0234 65.8203 25 63.8672 25H58.0078C56.0547 25 55.0781 24.0234 55.0781 22.0703V17.7344L59.1797 18.5547V22.0703H62.6953V18.1445L59.1914 17.2656C56.4492 16.6562 55.0781 15.3281 55.0781 13.2812V10.3516C55.0781 8.39844 56.0547 7.42188 58.0078 7.42188H63.8672C65.8203 7.42188 66.7969 8.39844 66.7969 10.3516V12.6953ZM74.4141 30.8594C74.4141 32.4219 73.4375 33.2031 71.4844 33.2031H65.625C63.6719 33.2031 62.6953 32.4219 62.6953 30.8594V26.1719H67.3828V28.5156H66.7969V30.8594H70.3125V13.2812L68.5547 11.4414L70.8984 7.42188H79.1016C81.0547 7.42188 82.0312 8.39844 82.0312 10.3516V25H77.9297V10.3516H71.0156L74.4141 13.2812V30.8594ZM97.2656 22.0703H100.781V13.2812L99.0234 11.4414L101.367 7.42188H104.883V10.3516H101.484L104.883 13.2812V22.0703C104.883 24.0234 103.906 25 101.953 25H96.0938C94.1406 25 93.1641 24.0234 93.1641 22.0703V10.3516H89.6484V22.0703H90.8203V25H85.5469V10.3516C85.5469 8.39844 86.5234 7.42188 88.4766 7.42188H94.3359C96.2891 7.42188 97.2656 8.39844 97.2656 10.3516V22.0703ZM96.0938 1.5625H100.711V2.73438H99.3984V3.32031H103.348V0.976562H106.641V3.90625C106.641 5.07812 105.762 5.66406 104.004 5.66406H96.0938V1.5625ZM112.5 22.0703H116.016V13.2812L114.258 11.4414L116.602 7.42188H120.117V10.3516H116.719L120.117 13.2812V22.0703H123.633V13.2812L121.875 11.4414L124.219 7.42188H127.734V10.3516H124.336L127.734 13.2812V22.0703C127.734 24.0234 126.758 25 124.805 25H111.328C109.375 25 108.398 24.0234 108.398 22.0703V7.42188H113.672V10.3516H112.5V22.0703ZM130.078 22.0703H131.25V13.2812L129.492 11.4414L131.836 7.42188H133.594V6.25H135.352V10.3516H131.953L135.352 13.2812V25H130.078V22.0703ZM126.562 4.49219C126.562 3.32031 126.914 2.44141 127.617 1.85547C128.32 1.26953 129.375 0.976562 130.781 0.976562C131.945 0.976562 133.059 1.26953 134.121 1.85547C135.176 2.44141 136.172 3.32031 137.109 4.49219V5.66406H126.562V4.49219ZM130.781 3.32031C130.312 3.32031 129.961 3.41797 129.727 3.61328C129.492 3.80859 129.375 4.10156 129.375 4.49219H134.859C134.453 4.10156 133.906 3.80859 133.219 3.61328C132.531 3.41797 131.719 3.32031 130.781 3.32031ZM143.953 12.1094H147.656C149.609 12.1094 150.586 13.0859 150.586 15.0391V22.0703H154.102V13.2812L152.344 11.4414L154.688 7.42188H158.203V10.3516H154.805L158.203 13.2812V22.0703C158.203 24.0234 157.227 25 155.273 25H149.414C147.461 25 146.484 24.0234 146.484 22.0703V15.0391H142.969V22.0703H144.141V25H138.867V15.0391C138.867 13.4922 139.477 12.5586 140.695 12.2383L138.867 10.5039L140.625 7.42188H148.828V10.3516H141.914L143.953 12.1094ZM151.629 33.2031C149.723 33.2031 148.488 32.9492 147.926 32.4414C147.355 31.9336 147.07 31.2148 147.07 30.2852V29.1016C147.961 28.8984 149.125 28.5547 150.562 28.0703C151.992 27.5781 153.172 26.9453 154.102 26.1719H157.617V27.3555C157.617 29.2852 157.027 30.7422 155.848 31.7266C154.668 32.7109 153.262 33.2031 151.629 33.2031ZM150.586 30.2383C150.586 30.6289 150.695 30.9297 150.914 31.1406C151.125 31.3359 151.445 31.4336 151.875 31.4336C152.742 31.4336 153.332 31.1758 153.645 30.6602C153.949 30.1445 154.102 29.3359 154.102 28.2344C153.695 28.7188 153.168 29.1289 152.52 29.4648C151.879 29.793 151.234 30.0508 150.586 30.2383ZM161.719 10.3516V7.42188H173.438V10.3516H161.719ZM169.336 25V15.0391H165.82V25H161.719V15.0391C161.719 13.0859 162.695 12.1094 164.648 12.1094H170.508C172.461 12.1094 173.438 13.0859 173.438 15.0391V25H169.336ZM184.57 15.0391V13.2812L182.812 11.4414L185.156 7.42188H188.672V10.3516H185.273L188.672 13.2812V22.0703C188.672 24.0234 187.695 25 185.742 25H179.883C177.93 25 176.953 24.0234 176.953 22.0703V13.2812L175.195 11.4414L177.539 7.42188H181.055V10.3516H177.656L181.055 13.2812V22.0703H184.57V17.9688H181.641V15.0391H184.57ZM185.156 28.5156V25.5859H188.672V27.7891L187.23 28.5273C187.52 28.5664 187.801 28.6602 188.074 28.8086C188.441 29.0117 188.73 29.3008 188.941 29.6758C189.152 30.0508 189.258 30.4453 189.258 30.8594C189.258 32.4219 188.602 33.2031 187.289 33.2031C185.977 33.2031 185.293 32.6133 185.238 31.4336L176.367 31.4453V28.5156H185.156Z" fill="white"/>
<path d="M2.77734 47H1.44141V36.9277L7.01367 36.9102V38.1758H2.77734V40.3555H7.01367V41.6211H2.77734V47ZM11.2324 38.1758V41.2344H14.0625V38.1758H11.2324ZM15.4688 47H14.0625V42.5H11.2324V47H9.89648V36.9277H15.4688V47ZM22.6055 38.2285H19.7578V45.7344H23.7832V47H18.3516V36.9277H23.9238V39.793H22.6055V38.2285ZM32.3789 36.9277V47H26.8066V36.9277H28.1426V45.7344H30.9727V36.9277H32.3789ZM36.5977 45.6289H40.834V47H35.2617V36.9277L36.5977 36.9102V45.6289ZM47.2148 47H45.8789V38.2109H43.6992V36.9277H49.2891V38.2109H47.2148V47ZM57.7441 36.9277V47H52.1719V45.7344H56.3379V43.7656H52.207V36.9277H53.5078V42.4648H56.3379V36.9277H57.7441ZM65.5488 45.6289H68.3789V38.1934H65.5488V45.6289ZM64.2129 47V36.9277H69.7852V47H64.2129ZM74.0039 47H72.668V36.9277L78.2402 36.9102V38.1758H74.0039V40.3555H78.2402V41.6211H74.0039V47ZM90.2812 45.6289V47H84.709V36.9277L90.2812 36.9102V38.1758H86.0449V40.3555H90.2812V41.6211H86.0449V45.6289H90.2812ZM94.4473 36.9102L93.1641 36.9277V47H94.5V40.707L97.6816 47H98.7363V36.9277H97.3301V42.5L94.4473 36.9102ZM104.133 40.3379H107.191V47H101.619V36.9277H107.191V38.2461H103.025V45.7344H105.855V41.5859H104.133V40.3379ZM110.812 38.2109H109.529V36.9277H113.344V38.2109H112.148V45.6992H113.432V47H109.635V45.6992H110.812V38.2109ZM117.053 36.9102L115.77 36.9277V47H117.105V40.707L120.287 47H121.342V36.9277H119.936V42.5L117.053 36.9102ZM129.797 45.6289V47H124.225V36.9277L129.797 36.9102V38.1758H125.561V40.3555H129.797V41.6211H125.561V45.6289H129.797ZM138.252 45.6289V47H132.68V36.9277L138.252 36.9102V38.1758H134.016V40.3555H138.252V41.6211H134.016V45.6289H138.252ZM147.252 47H145.494L143.033 42.5H142.471L142.488 47H141.135V36.9277H146.355V42.5H144.809L147.252 47ZM144.949 41.2344V38.1758H142.471V41.2344H144.949ZM150.328 38.2109H149.045V36.9277H152.859V38.2109H151.664V45.6992H152.947V47H149.15V45.6992H150.328V38.2109ZM156.568 36.9102L155.285 36.9277V47H156.621V40.707L159.803 47H160.857V36.9277H159.451V42.5L156.568 36.9102ZM166.254 40.3379H169.312V47H163.74V36.9277H169.312V38.2461H165.146V45.7344H167.977V41.5859H166.254V40.3379Z" fill="white"/>
</svg>
