<svg width="191" height="50" viewBox="0 0 191 50" fill="none" xmlns="http://www.w3.org/2000/svg">
<path d="M5.85938 22.0703H9.38672V17.9688H6.45703V15.0391H9.38672V13.293L7.60547 11.4414L9.96094 7.43359H13.4883V10.3633H10.0781L13.4883 13.293V22.0703C13.4883 24.0234 12.5039 25 10.5352 25H4.67578C2.73047 25 1.75781 24.0234 1.75781 22.0703V13.293L0 11.4414L2.35547 7.43359H5.85938V10.3633H2.47266L5.85938 13.293V22.0703ZM36.3047 10.3633V25H32.2031V10.3633H28.6992V22.0703C28.6992 24.0234 27.7148 25 25.7461 25H19.8867C17.9414 25 16.9688 24.0234 16.9688 22.0703V13.293L15.2109 11.4414L17.5664 7.43359H21.0703V10.3633H17.6836L21.0703 13.293V22.0703H24.5977V10.3633C24.5977 8.41016 25.5742 7.43359 27.5273 7.43359H33.375C35.3281 7.43359 36.3047 8.41016 36.3047 10.3633ZM43.9453 10.3633V25H39.8438V10.3633H36.9141V7.43359H41.0156C42.9688 7.43359 43.9453 8.41016 43.9453 10.3633ZM45.6797 11.4414L48.0352 7.43359H49.7812V6.26172H51.5391V10.3633H48.1523L51.5391 13.293V25H46.2539V22.0703H47.4375V13.293L45.6797 11.4414ZM53.9531 4.50391V5.65234H43.418V4.50391C43.418 3.31641 43.7695 2.4375 44.4727 1.86719C45.168 1.27344 46.2227 0.976562 47.6367 0.976562C48.8164 0.976562 49.9297 1.27344 50.9766 1.86719C52.0391 2.44531 53.0312 3.32422 53.9531 4.50391ZM47.6367 3.33203C47.1602 3.33203 46.8086 3.42578 46.582 3.61328C46.3477 3.80859 46.2305 4.10547 46.2305 4.50391H51.7266C51.3125 4.11328 50.7578 3.81641 50.0625 3.61328C49.375 3.42578 48.5664 3.33203 47.6367 3.33203ZM66.75 10.3633V12.6836C66.75 13.4727 66.168 13.8672 65.0039 13.8672H62.0742V11.5117H62.6484V10.3633H59.1445V13.293C59.1445 14.2852 59.9844 14.9805 61.6641 15.3789L63.2695 15.7305C63.3555 15.6445 63.4609 15.5469 63.5859 15.4375C63.7188 15.3203 63.8711 15.1875 64.043 15.0391H66.75V17.4648C66.75 18.0273 66.3516 18.4336 65.5547 18.6836L66.75 19.2695V22.0703C66.75 24.0234 65.7773 25 63.832 25H57.9727C56.0195 25 55.043 24.0234 55.043 22.0703V17.7227L59.1445 18.543V22.0703H62.6484V18.1328L59.1445 17.2773C56.4102 16.668 55.043 15.3398 55.043 13.293V10.3633C55.043 8.41016 56.0195 7.43359 57.9727 7.43359H63.832C65.7773 7.43359 66.75 8.41016 66.75 10.3633ZM67.3359 25.9609V27.9531H66.7617V29.9453H70.2656V13.293L68.5195 11.4414L70.8633 7.43359H74.3672V10.3633H70.9922L74.3672 13.293V29.9453C74.3672 31.2891 73.3945 31.9609 71.4492 31.9609H65.5898C63.6367 31.9609 62.6602 31.2891 62.6602 29.9453V25.9609H67.3359ZM82.0078 10.3633V25H77.9062V10.3633H74.9766V7.43359H79.0781C81.0312 7.43359 82.0078 8.41016 82.0078 10.3633ZM97.1953 10.3633V22.0703H100.723V13.293L98.9766 11.4414L101.309 7.43359H104.836V10.3633H101.426L104.836 13.293V22.0703C104.836 24.0234 103.859 25 101.906 25H96.0234C94.0703 25 93.0938 24.0234 93.0938 22.0703V10.3633H89.5898V22.0703H90.7734V25H85.4883V10.3633C85.4883 8.41016 86.4648 7.43359 88.418 7.43359H94.2773C96.2227 7.43359 97.1953 8.41016 97.1953 10.3633ZM103.98 5.65234H96.0586V1.55078H100.664V2.72266H99.375V3.33203H103.301V0.976562H106.594V3.90625C106.594 5.07031 105.723 5.65234 103.98 5.65234ZM108.34 22.0703V7.43359H113.625V10.3633H112.441V22.0703H115.945V13.293L114.199 11.4414L116.543 7.43359H120.047V10.3633H116.672L120.047 13.293V22.0703H123.574V13.293L121.828 11.4414L124.16 7.43359H127.688V10.3633H124.277L127.688 13.293V22.0703C127.688 24.0234 126.711 25 124.758 25H111.27C109.316 25 108.34 24.0234 108.34 22.0703ZM129.445 11.4414L131.801 7.43359H133.547V6.26172H135.305V10.3633H131.918L135.305 13.293V25H130.02V22.0703H131.203V13.293L129.445 11.4414ZM137.719 4.50391V5.65234H127.184V4.50391C127.184 3.31641 127.535 2.4375 128.238 1.86719C128.934 1.27344 129.988 0.976562 131.402 0.976562C132.582 0.976562 133.695 1.27344 134.742 1.86719C135.805 2.44531 136.797 3.32422 137.719 4.50391ZM131.402 3.33203C130.926 3.33203 130.574 3.42578 130.348 3.61328C130.113 3.80859 129.996 4.10547 129.996 4.50391H135.492C135.078 4.11328 134.523 3.81641 133.828 3.61328C133.141 3.42578 132.332 3.33203 131.402 3.33203ZM138.809 10.5039L140.566 7.43359H148.77V10.3633H141.855L143.895 12.1094H147.598C149.543 12.1094 150.516 13.0859 150.516 15.0391V22.0703H154.043V13.293L152.297 11.4414L154.629 7.43359H158.156V10.3633H154.746L158.156 13.293V22.0703C158.156 24.0234 157.18 25 155.227 25H149.344C147.391 25 146.414 24.0234 146.414 22.0703V15.0391H142.91V22.0703H144.094V25H138.809V15.0391C138.809 13.4766 139.418 12.5391 140.637 12.2266L138.809 10.5039ZM151.594 31.9609C149.695 31.9609 148.457 31.7422 147.879 31.3047C147.316 30.8594 147.035 30.2461 147.035 29.4648V28.457C147.488 28.3711 148.008 28.25 148.594 28.0938C149.172 27.9453 149.82 27.7695 150.539 27.5664C151.961 27.1523 153.137 26.6172 154.066 25.9609H157.57V26.9688C157.57 28.0625 157.301 28.9805 156.762 29.7227C156.215 30.4648 155.492 31.0234 154.594 31.3984C153.688 31.7734 152.688 31.9609 151.594 31.9609ZM150.539 29.418C150.539 29.7617 150.652 30.0234 150.879 30.2031C151.082 30.3672 151.402 30.4492 151.84 30.4492C152.707 30.4492 153.297 30.2344 153.609 29.8047C153.914 29.3438 154.066 28.6445 154.066 27.707C153.676 28.1211 153.148 28.4766 152.484 28.7734C151.852 29.0469 151.203 29.2617 150.539 29.418ZM173.367 7.43359V10.3633H161.66V7.43359H173.367ZM173.367 15.0391V25H169.266V15.0391H165.762V25H161.66V15.0391C161.66 13.0859 162.637 12.1094 164.59 12.1094H170.449C172.395 12.1094 173.367 13.0859 173.367 15.0391ZM180.984 22.0703H184.512V17.9688H181.582V15.0391H184.512V13.293L182.73 11.4414L185.086 7.43359H188.613V10.3633H185.203L188.613 13.293V22.0703C188.613 24.0234 187.629 25 185.66 25H179.801C177.855 25 176.883 24.0234 176.883 22.0703V13.293L175.125 11.4414L177.48 7.43359H180.984V10.3633H177.598L180.984 13.293V22.0703ZM185.18 30.4961L176.297 30.5195V28.0703H185.086V25.9609H188.613V27.4727L187.172 28.0938C187.453 28.1016 187.73 28.1836 188.004 28.3398C188.379 28.4805 188.672 28.707 188.883 29.0195C189.086 29.332 189.188 29.6641 189.188 30.0156C189.188 31.3125 188.531 31.9609 187.219 31.9609C185.906 31.9609 185.227 31.4727 185.18 30.4961Z" fill="white"/>
<path d="M2.59082 36.0673V46.0204H0.929688V36.0673H2.59082ZM5.81738 40.4081V41.8026H2.20801V40.4081H5.81738ZM6.28223 36.0673V37.4618H2.20801V36.0673H6.28223ZM9.81641 37.4345L7.41016 46.0204H5.67383L8.83203 36.0673H9.91211L9.81641 37.4345ZM11.7373 46.0204L9.32422 37.4345L9.20801 36.0673H10.3086L13.4805 46.0204H11.7373ZM11.7783 42.3222V43.7167H7.14355V42.3222H11.7783ZM19.3594 42.7733H21.0137C20.9818 43.4934 20.8359 44.1064 20.5762 44.6122C20.3164 45.1135 19.9427 45.4963 19.4551 45.7607C18.972 46.025 18.3818 46.1571 17.6846 46.1571C17.1559 46.1571 16.682 46.0614 16.2627 45.87C15.848 45.6786 15.4948 45.4029 15.2031 45.0429C14.9115 44.6783 14.6882 44.234 14.5332 43.7099C14.3828 43.1858 14.3076 42.5911 14.3076 41.9257V40.162C14.3076 39.4967 14.3851 38.9019 14.54 38.3778C14.6995 37.8537 14.9274 37.4094 15.2236 37.0448C15.5199 36.6802 15.8799 36.4045 16.3037 36.2177C16.7321 36.0263 17.2152 35.9306 17.7529 35.9306C18.4411 35.9306 19.0199 36.0627 19.4893 36.3271C19.9587 36.5914 20.321 36.9787 20.5762 37.4892C20.8314 37.9996 20.9795 38.6217 21.0205 39.3554H19.3662C19.3434 38.8586 19.2751 38.4621 19.1611 38.1659C19.0518 37.8651 18.8831 37.6487 18.6553 37.5165C18.432 37.3843 18.1312 37.3183 17.7529 37.3183C17.4385 37.3183 17.1673 37.3775 16.9395 37.496C16.7161 37.6145 16.5316 37.7922 16.3857 38.0292C16.2445 38.2616 16.1374 38.5556 16.0645 38.911C15.9961 39.262 15.9619 39.6744 15.9619 40.1483V41.9257C15.9619 42.3814 15.9915 42.7847 16.0508 43.1357C16.11 43.4866 16.2057 43.7851 16.3379 44.0312C16.4701 44.2727 16.6455 44.4573 16.8643 44.5849C17.083 44.7079 17.3564 44.7694 17.6846 44.7694C18.0765 44.7694 18.3887 44.7079 18.6211 44.5849C18.8581 44.4618 19.0335 44.2545 19.1475 43.9628C19.2614 43.6711 19.332 43.2746 19.3594 42.7733ZM27.043 36.0673H28.7041V42.9784C28.7041 43.7395 28.5605 44.3524 28.2734 44.8173C27.9909 45.2821 27.6081 45.6217 27.125 45.8358C26.6465 46.05 26.1133 46.1571 25.5254 46.1571C24.9147 46.1571 24.3701 46.05 23.8916 45.8358C23.4131 45.6217 23.0371 45.2821 22.7637 44.8173C22.4902 44.3524 22.3535 43.7395 22.3535 42.9784V36.0673H24.0078V42.9784C24.0078 43.4524 24.0671 43.8192 24.1855 44.079C24.3086 44.3388 24.4818 44.5188 24.7051 44.619C24.9329 44.7193 25.2064 44.7694 25.5254 44.7694C25.8444 44.7694 26.1156 44.7193 26.3389 44.619C26.5667 44.5188 26.7399 44.3388 26.8584 44.079C26.9814 43.8192 27.043 43.4524 27.043 42.9784V36.0673ZM35.7793 44.6327V46.0204H31.6436V44.6327H35.7793ZM32.0811 36.0673V46.0204H30.4199V36.0673H32.0811ZM39.0947 36.0673V46.0204H37.4404V36.0673H39.0947ZM41.6309 36.0673V37.4618H34.9316V36.0673H41.6309ZM44.1123 36.0673L45.8623 40.7841L47.6123 36.0673H49.4443L46.6963 42.3564V46.0204H45.0215V42.3564L42.2734 36.0673H44.1123ZM60.5254 40.2304V41.9257C60.5254 42.6275 60.4434 43.2427 60.2793 43.7714C60.1198 44.3 59.8874 44.7421 59.582 45.0976C59.2812 45.4485 58.9167 45.7128 58.4883 45.8905C58.0645 46.0683 57.5905 46.1571 57.0664 46.1571C56.5469 46.1571 56.0729 46.0683 55.6445 45.8905C55.2207 45.7128 54.8538 45.4485 54.5439 45.0976C54.2386 44.7421 54.0016 44.3 53.833 43.7714C53.6689 43.2427 53.5869 42.6275 53.5869 41.9257V40.2304C53.5869 39.5194 53.6689 38.8974 53.833 38.3642C53.9971 37.8264 54.2318 37.3775 54.5371 37.0175C54.847 36.6575 55.2139 36.3863 55.6377 36.204C56.0661 36.0217 56.5378 35.9306 57.0527 35.9306C57.5768 35.9306 58.0508 36.0217 58.4746 36.204C58.903 36.3863 59.2699 36.6575 59.5752 37.0175C59.8805 37.3775 60.1152 37.8264 60.2793 38.3642C60.4434 38.8974 60.5254 39.5194 60.5254 40.2304ZM58.8779 41.9257V40.2167C58.8779 39.7108 58.8369 39.2779 58.7549 38.9179C58.6774 38.5533 58.5612 38.2571 58.4062 38.0292C58.2513 37.7968 58.0599 37.6259 57.832 37.5165C57.6087 37.4026 57.349 37.3456 57.0527 37.3456C56.7656 37.3456 56.5081 37.4026 56.2803 37.5165C56.057 37.6259 55.8656 37.7968 55.7061 38.0292C55.5511 38.2571 55.4326 38.5533 55.3506 38.9179C55.2731 39.2779 55.2344 39.7108 55.2344 40.2167V41.9257C55.2344 42.4224 55.2754 42.8508 55.3574 43.2108C55.4395 43.5663 55.5579 43.858 55.7129 44.0858C55.8724 44.3092 56.0661 44.4755 56.2939 44.5849C56.5218 44.6942 56.7793 44.7489 57.0664 44.7489C57.3581 44.7489 57.6178 44.6942 57.8457 44.5849C58.0736 44.4755 58.2627 44.3092 58.4131 44.0858C58.568 43.858 58.6842 43.5663 58.7617 43.2108C58.8392 42.8508 58.8779 42.4224 58.8779 41.9257ZM63.8682 36.0673V46.0204H62.207V36.0673H63.8682ZM67.0947 40.4081V41.8026H63.4854V40.4081H67.0947ZM67.5596 36.0673V37.4618H63.4854V36.0673H67.5596ZM77.6768 44.6327V46.0204H73.3564V44.6327H77.6768ZM73.7939 36.0673V46.0204H72.1328V36.0673H73.7939ZM77.0957 40.2099V41.5771H73.3564V40.2099H77.0957ZM77.6357 36.0673V37.4618H73.3564V36.0673H77.6357ZM85.7979 36.0673V46.0204H84.1709L80.6572 39.1298V46.0204H79.0508V36.0673H80.6572L84.1982 43.0058V36.0673H85.7979ZM94.1924 40.914V44.8378C94.0693 44.9882 93.8825 45.1682 93.6318 45.3778C93.3857 45.5829 93.0531 45.7652 92.6338 45.9247C92.2191 46.0797 91.695 46.1571 91.0615 46.1571C90.5283 46.1571 90.0407 46.0705 89.5986 45.8974C89.1611 45.7242 88.7852 45.4621 88.4707 45.1112C88.1562 44.7603 87.9147 44.3228 87.7461 43.7987C87.5775 43.2701 87.4932 42.6457 87.4932 41.9257V40.1552C87.4932 39.4442 87.5684 38.8245 87.7188 38.2958C87.8737 37.7672 88.0993 37.3274 88.3955 36.9765C88.6917 36.621 89.0518 36.359 89.4756 36.1903C89.8994 36.0172 90.387 35.9306 90.9385 35.9306C91.6357 35.9306 92.2168 36.0536 92.6816 36.2997C93.151 36.5412 93.5088 36.9013 93.7549 37.3798C94.0055 37.8537 94.1514 38.4325 94.1924 39.1161H92.5723C92.5358 38.6968 92.4561 38.3573 92.333 38.0976C92.2145 37.8332 92.0436 37.6373 91.8203 37.5097C91.597 37.3821 91.3099 37.3183 90.959 37.3183C90.64 37.3183 90.3665 37.373 90.1387 37.4823C89.9108 37.5917 89.724 37.7626 89.5781 37.995C89.4323 38.2229 89.3252 38.5146 89.2568 38.87C89.1885 39.2255 89.1543 39.6493 89.1543 40.1415V41.9257C89.1543 42.427 89.1976 42.8577 89.2842 43.2177C89.3708 43.5777 89.4961 43.8739 89.6602 44.1064C89.8288 44.3342 90.0361 44.5028 90.2822 44.6122C90.5283 44.717 90.8086 44.7694 91.123 44.7694C91.4329 44.7694 91.679 44.7375 91.8613 44.6737C92.0436 44.6099 92.1849 44.5393 92.2852 44.4618C92.39 44.3798 92.4743 44.316 92.5381 44.2704V42.2196H90.9316V40.914H94.1924ZM97.6377 36.0673V46.0204H95.9766V36.0673H97.6377ZM106.306 36.0673V46.0204H104.679L101.165 39.1298V46.0204H99.5586V36.0673H101.165L104.706 43.0058V36.0673H106.306ZM113.729 44.6327V46.0204H109.409V44.6327H113.729ZM109.847 36.0673V46.0204H108.186V36.0673H109.847ZM113.148 40.2099V41.5771H109.409V40.2099H113.148ZM113.688 36.0673V37.4618H109.409V36.0673H113.688ZM120.647 44.6327V46.0204H116.327V44.6327H120.647ZM116.765 36.0673V46.0204H115.104V36.0673H116.765ZM120.066 40.2099V41.5771H116.327V40.2099H120.066ZM120.606 36.0673V37.4618H116.327V36.0673H120.606ZM122.028 36.0673H125.036C125.692 36.0673 126.248 36.1812 126.704 36.4091C127.16 36.637 127.506 36.9742 127.743 37.4208C127.985 37.8629 128.105 38.412 128.105 39.0683C128.105 39.565 128.03 40.0025 127.88 40.3808C127.734 40.759 127.522 41.078 127.244 41.3378C126.966 41.593 126.631 41.7912 126.239 41.9325L125.754 42.1991H123.211L123.204 40.8046H124.995C125.319 40.8046 125.588 40.734 125.802 40.5927C126.016 40.4514 126.175 40.2554 126.28 40.0048C126.39 39.7541 126.444 39.4693 126.444 39.1503C126.444 38.8085 126.396 38.5123 126.301 38.2616C126.205 38.0064 126.055 37.8105 125.85 37.6737C125.645 37.5325 125.373 37.4618 125.036 37.4618H123.689V46.0204H122.028V36.0673ZM126.663 46.0204L124.77 41.5497L126.499 41.5429L128.44 45.9315V46.0204H126.663ZM131.353 36.0673V46.0204H129.691V36.0673H131.353ZM140.021 36.0673V46.0204H138.394L134.88 39.1298V46.0204H133.273V36.0673H134.88L138.421 43.0058V36.0673H140.021ZM148.415 40.914V44.8378C148.292 44.9882 148.105 45.1682 147.854 45.3778C147.608 45.5829 147.276 45.7652 146.856 45.9247C146.442 46.0797 145.918 46.1571 145.284 46.1571C144.751 46.1571 144.263 46.0705 143.821 45.8974C143.384 45.7242 143.008 45.4621 142.693 45.1112C142.379 44.7603 142.137 44.3228 141.969 43.7987C141.8 43.2701 141.716 42.6457 141.716 41.9257V40.1552C141.716 39.4442 141.791 38.8245 141.941 38.2958C142.096 37.7672 142.322 37.3274 142.618 36.9765C142.914 36.621 143.274 36.359 143.698 36.1903C144.122 36.0172 144.61 35.9306 145.161 35.9306C145.858 35.9306 146.439 36.0536 146.904 36.2997C147.374 36.5412 147.731 36.9013 147.978 37.3798C148.228 37.8537 148.374 38.4325 148.415 39.1161H146.795C146.758 38.6968 146.679 38.3573 146.556 38.0976C146.437 37.8332 146.266 37.6373 146.043 37.5097C145.82 37.3821 145.533 37.3183 145.182 37.3183C144.863 37.3183 144.589 37.373 144.361 37.4823C144.133 37.5917 143.947 37.7626 143.801 37.995C143.655 38.2229 143.548 38.5146 143.479 38.87C143.411 39.2255 143.377 39.6493 143.377 40.1415V41.9257C143.377 42.427 143.42 42.8577 143.507 43.2177C143.593 43.5777 143.719 43.8739 143.883 44.1064C144.051 44.3342 144.259 44.5028 144.505 44.6122C144.751 44.717 145.031 44.7694 145.346 44.7694C145.656 44.7694 145.902 44.7375 146.084 44.6737C146.266 44.6099 146.408 44.5393 146.508 44.4618C146.613 44.3798 146.697 44.316 146.761 44.2704V42.2196H145.154V40.914H148.415Z" fill="white"/>
</svg>
