<svg width="240" height="57" viewBox="0 0 240 57" fill="none" xmlns="http://www.w3.org/2000/svg">
<path d="M1.75781 15.3516V12.4219H10.5469V15.3516H1.75781ZM19.3359 12.4219V26.4844C19.3359 28.8281 17.5781 30 14.0625 30C10.5469 30 8.78906 28.8281 8.78906 26.4844V20.625C8.78906 19.8438 8.20312 19.4531 7.03125 19.4531C5.85938 19.4531 5.27344 19.8438 5.27344 20.625V26.4844C5.27344 27.2656 5.85938 27.6562 7.03125 27.6562V30H4.39453C2.63672 30 1.75781 28.8281 1.75781 26.4844V20.625C1.75781 18.2812 3.51562 17.1094 7.03125 17.1094C10.5469 17.1094 12.3047 18.2812 12.3047 20.625V26.4844C12.3047 27.2656 12.8906 27.6562 14.0625 27.6562C15.2344 27.6562 15.8203 27.2656 15.8203 26.4844V12.4219H19.3359ZM22.8516 30V16.5234C22.8516 15.7422 22.2656 15.3516 21.0938 15.3516H19.9219V12.4219H21.0938C24.6094 12.4219 26.3672 13.5938 26.3672 15.9375V30H22.8516ZM29.8828 15.3516V12.4219H40.4297V15.3516H29.8828ZM36.9141 30V20.625C36.9141 19.8438 36.3281 19.4531 35.1562 19.4531C33.9844 19.4531 33.3984 19.8438 33.3984 20.625V30H29.8828V20.625C29.8828 18.2812 31.6406 17.1094 35.1562 17.1094C38.6719 17.1094 40.4297 18.2812 40.4297 20.625V30H36.9141ZM54.4922 26.4844C54.4922 27.2656 55.0781 27.6562 56.25 27.6562C57.4219 27.6562 58.0078 27.2656 58.0078 26.4844V12.4219H61.5234V26.4844C61.5234 28.8281 59.7656 30 56.25 30C52.7344 30 50.9766 28.8281 50.9766 26.4844V15.9375C50.9766 15.1562 50.3906 14.7656 49.2188 14.7656C48.0469 14.7656 47.4609 15.1562 47.4609 15.9375V26.4844C47.4609 27.2656 48.0469 27.6562 49.2188 27.6562V30H46.582C44.8242 30 43.9453 28.8281 43.9453 26.4844V15.9375C43.9453 13.5938 45.7031 12.4219 49.2188 12.4219C52.7344 12.4219 54.4922 13.5938 54.4922 15.9375V26.4844ZM65.0391 20.0391C65.0391 19.4141 65.4297 18.9062 66.2109 18.5156L64.4531 17.8477V12.4219H66.7969V11.25H69.1406V15.3516H67.0312V16.1367L69.1406 17.1094V19.4531C68.75 19.4531 68.5547 19.8047 68.5547 20.5078V27.6562C68.5547 29.2188 67.8711 30 66.5039 30H64.4531V27.6562C64.8438 27.6562 65.0391 27.2656 65.0391 26.4844V20.0391ZM62.1094 9.49219V7.73438C62.1094 6.95312 62.4141 6.5625 63.0234 6.5625H66.668C67.4023 6.5625 68.6172 7.14844 70.3125 8.32031V9.49219H62.1094ZM72.0703 15.9375C72.0703 13.5938 73.8281 12.4219 77.3438 12.4219C80.8594 12.4219 82.6172 13.5938 82.6172 15.9375V17.6953C82.6172 18.4766 82.0312 18.8672 80.8594 18.8672H78.5156V16.5234H79.1016V15.9375C79.1016 15.1562 78.5156 14.7656 77.3438 14.7656C76.1719 14.7656 75.5859 15.1562 75.5859 15.9375V18.2812C75.5859 19.2812 76.4297 19.9766 78.1172 20.3672L79.7227 20.7422C79.8789 20.5625 80.0664 20.4023 80.2852 20.2617C80.5039 20.1133 80.7344 20.0391 80.9766 20.0391H81.4453C82.2266 20.0391 82.6172 20.3672 82.6172 21.0234V22.4531C82.6172 23.0156 82.2148 23.4258 81.4102 23.6836L82.6172 24.2578V26.4844C82.6172 28.8281 80.8594 30 77.3438 30C73.8281 30 72.0703 28.8281 72.0703 26.4844V22.7344L75.5859 23.5547V26.4844C75.5859 27.2656 76.1719 27.6562 77.3438 27.6562C78.5156 27.6562 79.1016 27.2656 79.1016 26.4844V23.1445L75.5977 22.2656C73.2461 21.6562 72.0703 20.3281 72.0703 18.2812V15.9375ZM82.6172 31.1719V34.6875C82.6172 35.4688 83.2031 35.8594 84.375 35.8594C85.5469 35.8594 86.1328 35.4688 86.1328 34.6875V12.4219H89.6484V34.6875C89.6484 37.0312 87.8906 38.2031 84.375 38.2031C80.8594 38.2031 79.1016 37.0312 79.1016 34.6875V31.1719H82.6172ZM93.1641 30V16.5234C93.1641 15.7422 92.5781 15.3516 91.4062 15.3516H90.2344V12.4219H91.4062C94.9219 12.4219 96.6797 13.5938 96.6797 15.9375V30H93.1641ZM110.742 26.4844C110.742 27.2656 111.328 27.6562 112.5 27.6562C113.672 27.6562 114.258 27.2656 114.258 26.4844V12.4219H117.773V26.4844C117.773 28.8281 116.016 30 112.5 30C108.984 30 107.227 28.8281 107.227 26.4844V15.9375C107.227 15.1562 106.641 14.7656 105.469 14.7656C104.297 14.7656 103.711 15.1562 103.711 15.9375V26.4844C103.711 27.2656 104.297 27.6562 105.469 27.6562V30H102.832C101.074 30 100.195 28.8281 100.195 26.4844V15.9375C100.195 13.5938 101.953 12.4219 105.469 12.4219C108.984 12.4219 110.742 13.5938 110.742 15.9375V26.4844ZM110.156 6.5625H114.258V7.73438H113.086V8.32031H116.602V5.97656H119.531V8.90625C119.531 10.0781 118.75 10.6641 117.188 10.6641H110.156V6.5625ZM121.289 14.7656C121.289 13.2031 122.07 12.4219 123.633 12.4219H125.977V14.7656C125.195 14.7656 124.805 15.1562 124.805 15.9375V26.4844C124.805 27.2656 125.391 27.6562 126.562 27.6562C127.734 27.6562 128.32 27.2656 128.32 26.4844V12.4219H131.836V26.4844C131.836 27.2656 132.422 27.6562 133.594 27.6562C134.766 27.6562 135.352 27.2656 135.352 26.4844V12.4219H138.867V26.4844C138.867 28.8281 137.109 30 133.594 30C132.109 30 130.938 29.7891 130.078 29.3672C129.219 29.7891 128.047 30 126.562 30C123.047 30 121.289 28.8281 121.289 26.4844V14.7656ZM142.383 15.3516V12.4219H152.93V15.3516H142.383ZM145.898 28.8281C145.898 29.6094 145.312 30 144.141 30H142.383C141.602 30 141.211 29.4141 141.211 28.2422C141.211 27.0703 141.602 26.4844 142.383 26.4844V20.625C142.383 18.2812 144.141 17.1094 147.656 17.1094C151.172 17.1094 152.93 18.2812 152.93 20.625V30H149.414V20.625C149.414 19.8438 148.828 19.4531 147.656 19.4531C146.484 19.4531 145.898 19.8438 145.898 20.625V28.8281ZM145.312 31.1719H147.656V35.8594C147.656 36.25 147.949 36.4453 148.535 36.4453C149.121 36.4453 149.414 36.25 149.414 35.8594V31.1719H152.93V35.8594C152.93 37.4219 151.465 38.2031 148.535 38.2031C146.387 38.2031 145.312 37.4219 145.312 35.8594V31.1719ZM159.961 26.4844C159.961 27.2656 160.547 27.6562 161.719 27.6562C162.891 27.6562 163.477 27.2656 163.477 26.4844V22.9688H160.547V20.625H163.477V12.4219H166.992V26.4844C166.992 28.8281 165.234 30 161.719 30C158.203 30 156.445 28.8281 156.445 26.4844V20.0391C156.445 19.4141 156.836 18.9062 157.617 18.5156L155.859 18.082V12.4219H161.133V15.3516H158.438V16.1367L161.133 17.1094V19.4531C160.352 19.4531 159.961 19.8047 159.961 20.5078V26.4844ZM156.445 9.49219V7.73438C156.445 6.95312 156.836 6.5625 157.617 6.5625H162.305C163.242 6.5625 164.805 7.14844 166.992 8.32031V9.49219H156.445ZM170.508 22.9688H174.023V26.5664L175.781 24.8555L177.539 26.5664V23.25L176.66 23.0273C172.559 21.793 170.508 20.2109 170.508 18.2812V15.9375C170.508 13.5938 172.266 12.4219 175.781 12.4219C179.297 12.4219 181.055 13.5938 181.055 15.9375V18.2812C181.055 19.0625 180.469 19.4531 179.297 19.4531H176.953V17.1094H177.539V15.9375C177.539 15.1562 176.953 14.7656 175.781 14.7656C174.609 14.7656 174.023 15.1562 174.023 15.9375V18.2812C174.023 19.3516 175.195 20.207 177.539 20.8477L181.055 21.8086V28.8281C181.055 29.6094 180.48 30 179.332 30H177.539L175.781 28.2891L174.023 30H172.23C171.082 30 170.508 29.6094 170.508 28.8281V22.9688ZM175.488 33.2461C176.855 33.1367 177.539 32.8359 177.539 32.3438H176.215V31.1719H181.055V32.5664C181.055 33.4961 180.156 34.0703 178.359 34.2891L174.023 34.6172V36.0234L181.055 35.0039V36.9141C181.055 37.7734 180.484 38.2031 179.344 38.2031H176.297L177.07 37.5586V36.9141L174.48 37.5586H170.508V33.7266L175.488 33.2461ZM184.57 15.3516V12.4219H195.117V15.3516H184.57ZM188.086 28.8281C188.086 29.6094 187.5 30 186.328 30H184.57C183.789 30 183.398 29.4141 183.398 28.2422C183.398 27.0703 183.789 26.4844 184.57 26.4844V20.625C184.57 18.2812 186.328 17.1094 189.844 17.1094C193.359 17.1094 195.117 18.2812 195.117 20.625V30H191.602V20.625C191.602 19.8438 191.016 19.4531 189.844 19.4531C188.672 19.4531 188.086 19.8438 188.086 20.625V28.8281ZM186.328 37.0312C185.156 37.0312 184.57 36.6406 184.57 35.8594V33.5156C184.57 32.7344 185.156 32.3438 186.328 32.3438H191.016V31.1719H194.531V32.3438H195.703V34.1016H194.531V35.2734C195.312 35.2734 195.703 35.7617 195.703 36.7383C195.703 37.7148 194.824 38.2031 193.066 38.2031C191.699 38.2031 191.016 37.8125 191.016 37.0312H186.328ZM188.086 35.2734H191.016V34.1016H188.086V35.2734ZM189.844 5.97656C189.648 5.97656 189.457 6.02734 189.27 6.12891C189.082 6.23047 188.938 6.375 188.836 6.5625C188.727 6.75 188.672 6.94531 188.672 7.14844C188.672 7.35156 188.727 7.54688 188.836 7.73438C188.938 7.92188 189.082 8.06641 189.27 8.16797C189.457 8.26953 189.648 8.32031 189.844 8.32031C190.047 8.32031 190.242 8.26953 190.43 8.16797C190.617 8.06641 190.762 7.92188 190.863 7.73438C190.965 7.54688 191.016 7.35156 191.016 7.14844C191.016 6.94531 190.965 6.75 190.863 6.5625C190.754 6.375 190.609 6.23047 190.43 6.12891C190.242 6.02734 190.047 5.97656 189.844 5.97656ZM189.844 3.63281C190.438 3.63281 191.016 3.78516 191.578 4.08984C192.133 4.38672 192.57 4.82031 192.891 5.39062C193.203 5.95312 193.359 6.53906 193.359 7.14844C193.359 7.75781 193.207 8.34375 192.902 8.90625C192.59 9.46094 192.156 9.89453 191.602 10.207C191.039 10.5117 190.453 10.6641 189.844 10.6641C189.242 10.6641 188.664 10.5117 188.109 10.207C187.547 9.89453 187.109 9.46094 186.797 8.90625C186.484 8.34375 186.328 7.75781 186.328 7.14844C186.328 6.53906 186.488 5.95312 186.809 5.39062C187.121 4.82031 187.559 4.38672 188.121 4.08984C188.676 3.78516 189.25 3.63281 189.844 3.63281ZM202.148 12.4219V26.4844C202.148 27.2656 202.539 27.6562 203.32 27.6562V30H200.977C199.414 30 198.633 29.2188 198.633 27.6562V12.4219H202.148ZM210.938 28.8281C210.938 29.6094 210.352 30 209.18 30H207.422C206.25 30 205.664 29.6094 205.664 28.8281V13.5938C205.664 12.8125 206.238 12.4219 207.387 12.4219H209.18L210.938 14.1328L212.695 12.4219H214.488C215.637 12.4219 216.211 12.8125 216.211 13.5938V30H212.695V15.8555L210.938 17.5664L209.18 15.8555V26.4844C210.352 26.4844 210.938 26.875 210.938 27.6562V28.8281ZM233.789 30V16.5234C233.789 15.7422 233.203 15.3516 232.031 15.3516H230.859V12.4219H232.031C235.547 12.4219 237.305 13.5938 237.305 15.9375V30H233.789ZM223.242 26.4844C224.414 26.4844 225 26.875 225 27.6562V28.8281C225 29.6094 224.414 30 223.242 30H221.484C220.312 30 219.727 29.6094 219.727 28.8281V13.5938C219.727 12.8125 220.301 12.4219 221.449 12.4219H223.242L225 14.1328L226.758 12.4219H228.551C229.699 12.4219 230.273 12.8125 230.273 13.5938V30H226.758V15.8555L225 17.5664L223.242 15.8555V26.4844ZM233.789 33.5156V30.5859H237.305V32.7891L235.863 33.5273C236.152 33.5664 236.434 33.6602 236.707 33.8086C237.074 34.0117 237.363 34.3008 237.574 34.6758C237.785 35.0508 237.891 35.4453 237.891 35.8594C237.891 37.4219 237.234 38.2031 235.922 38.2031C234.609 38.2031 233.926 37.6133 233.871 36.4336L226.172 36.4453V33.5156H233.789Z" fill="white"/>
<path d="M6.66895 50.165H4.74121V54H3.01172V44.0469H6.51172C7.66016 44.0469 8.54655 44.3044 9.1709 44.8193C9.79525 45.3343 10.1074 46.0794 10.1074 47.0547C10.1074 47.7201 9.94564 48.2783 9.62207 48.7295C9.30306 49.1761 8.85645 49.5202 8.28223 49.7617L10.5176 53.9111V54H8.66504L6.66895 50.165ZM4.74121 48.7773H6.51855C7.10189 48.7773 7.55762 48.6315 7.88574 48.3398C8.21387 48.0436 8.37793 47.6403 8.37793 47.1299C8.37793 46.5967 8.22526 46.1842 7.91992 45.8926C7.61914 45.6009 7.16797 45.4505 6.56641 45.4414H4.74121V48.7773ZM11.2764 50.2334C11.2764 49.5088 11.4199 48.8571 11.707 48.2783C11.9941 47.695 12.3975 47.2484 12.917 46.9385C13.4365 46.624 14.0335 46.4668 14.708 46.4668C15.7061 46.4668 16.515 46.7881 17.1348 47.4307C17.7591 48.0732 18.0964 48.9255 18.1465 49.9873L18.1533 50.377C18.1533 51.1061 18.012 51.7578 17.7295 52.332C17.4515 52.9062 17.0505 53.3506 16.5264 53.665C16.0068 53.9795 15.4053 54.1367 14.7217 54.1367C13.6781 54.1367 12.8418 53.7904 12.2129 53.0977C11.5885 52.4004 11.2764 51.473 11.2764 50.3154V50.2334ZM12.9375 50.377C12.9375 51.138 13.0947 51.735 13.4092 52.168C13.7236 52.5964 14.1611 52.8105 14.7217 52.8105C15.2822 52.8105 15.7174 52.5918 16.0273 52.1543C16.3418 51.7168 16.499 51.0765 16.499 50.2334C16.499 49.486 16.3372 48.8936 16.0137 48.4561C15.6947 48.0186 15.2594 47.7998 14.708 47.7998C14.1657 47.7998 13.735 48.0163 13.416 48.4492C13.097 48.8776 12.9375 49.5202 12.9375 50.377ZM22.0361 51.6211L23.54 46.6035H25.3105L22.3711 55.1211C21.9199 56.3652 21.1543 56.9873 20.0742 56.9873C19.8327 56.9873 19.5661 56.9463 19.2744 56.8643V55.5791L19.5889 55.5996C20.0081 55.5996 20.3226 55.5221 20.5322 55.3672C20.7464 55.2168 20.915 54.9616 21.0381 54.6016L21.2773 53.9658L18.6797 46.6035H20.4707L22.0361 51.6211ZM30.5811 54C30.5081 53.8587 30.4443 53.6286 30.3896 53.3096C29.861 53.861 29.2139 54.1367 28.4482 54.1367C27.7054 54.1367 27.0993 53.9248 26.6299 53.501C26.1605 53.0771 25.9258 52.5531 25.9258 51.9287C25.9258 51.1403 26.2174 50.5365 26.8008 50.1172C27.3887 49.6934 28.2272 49.4814 29.3164 49.4814H30.335V48.9961C30.335 48.6133 30.2279 48.3079 30.0137 48.0801C29.7995 47.8477 29.4736 47.7314 29.0361 47.7314C28.6579 47.7314 28.348 47.8271 28.1064 48.0186C27.8649 48.2054 27.7441 48.4447 27.7441 48.7363H26.083C26.083 48.3307 26.2174 47.9525 26.4863 47.6016C26.7552 47.2461 27.1198 46.9681 27.5801 46.7676C28.0449 46.5671 28.5622 46.4668 29.1318 46.4668C29.9977 46.4668 30.6882 46.6855 31.2031 47.123C31.7181 47.556 31.9824 48.1667 31.9961 48.9551V52.291C31.9961 52.9564 32.0895 53.4873 32.2764 53.8838V54H30.5811ZM28.7559 52.8037C29.084 52.8037 29.3916 52.724 29.6787 52.5645C29.9704 52.4049 30.1891 52.1908 30.335 51.9219V50.5273H29.4395C28.8242 50.5273 28.3617 50.6344 28.0518 50.8486C27.7419 51.0628 27.5869 51.3659 27.5869 51.7578C27.5869 52.0768 27.6917 52.332 27.9014 52.5234C28.1156 52.7103 28.4004 52.8037 28.7559 52.8037ZM35.5029 54H33.8418V43.5H35.5029V54ZM48.2451 44.0469V50.6982C48.2451 51.7555 47.9056 52.5941 47.2266 53.2139C46.5521 53.8291 45.652 54.1367 44.5264 54.1367C43.387 54.1367 42.4824 53.8337 41.8125 53.2275C41.1426 52.6169 40.8076 51.7715 40.8076 50.6914V44.0469H42.5303V50.7051C42.5303 51.3704 42.6989 51.8786 43.0361 52.2295C43.3734 52.5804 43.8701 52.7559 44.5264 52.7559C45.8571 52.7559 46.5225 52.054 46.5225 50.6504V44.0469H48.2451ZM51.4785 46.6035L51.5264 47.458C52.0732 46.7972 52.791 46.4668 53.6797 46.4668C55.2201 46.4668 56.0039 47.3486 56.0312 49.1123V54H54.3701V49.208C54.3701 48.7386 54.2676 48.3923 54.0625 48.1689C53.862 47.9411 53.5316 47.8271 53.0713 47.8271C52.4014 47.8271 51.9023 48.1302 51.5742 48.7363V54H49.9131V46.6035H51.4785ZM59.4971 54H57.8359V46.6035H59.4971V54ZM57.7334 44.6826C57.7334 44.4274 57.8132 44.2155 57.9727 44.0469C58.1367 43.8783 58.3691 43.7939 58.6699 43.7939C58.9707 43.7939 59.2031 43.8783 59.3672 44.0469C59.5312 44.2155 59.6133 44.4274 59.6133 44.6826C59.6133 44.9333 59.5312 45.1429 59.3672 45.3115C59.2031 45.4756 58.9707 45.5576 58.6699 45.5576C58.3691 45.5576 58.1367 45.4756 57.9727 45.3115C57.8132 45.1429 57.7334 44.9333 57.7334 44.6826ZM63.9199 51.8945L65.4854 46.6035H67.2012L64.6377 54H63.1953L60.6113 46.6035H62.334L63.9199 51.8945ZM71.4053 54.1367C70.3525 54.1367 69.498 53.8063 68.8418 53.1455C68.1901 52.4801 67.8643 51.596 67.8643 50.4932V50.2881C67.8643 49.5498 68.0055 48.8913 68.2881 48.3125C68.5752 47.7292 68.9762 47.2757 69.4912 46.9521C70.0062 46.6286 70.5804 46.4668 71.2139 46.4668C72.221 46.4668 72.998 46.7881 73.5449 47.4307C74.0964 48.0732 74.3721 48.9824 74.3721 50.1582V50.8281H69.5391C69.5892 51.4388 69.792 51.9219 70.1475 52.2773C70.5075 52.6328 70.9587 52.8105 71.501 52.8105C72.262 52.8105 72.8818 52.5029 73.3604 51.8877L74.2559 52.7422C73.9596 53.1842 73.5632 53.5283 73.0664 53.7744C72.5742 54.016 72.0205 54.1367 71.4053 54.1367ZM71.207 47.7998C70.7513 47.7998 70.3822 47.9593 70.0996 48.2783C69.8216 48.5973 69.6439 49.0417 69.5664 49.6113H72.7314V49.4883C72.695 48.9323 72.5469 48.513 72.2871 48.2305C72.0273 47.9434 71.6673 47.7998 71.207 47.7998ZM79.54 48.1211C79.3213 48.0846 79.0957 48.0664 78.8633 48.0664C78.1022 48.0664 77.5895 48.3581 77.3252 48.9414V54H75.6641V46.6035H77.25L77.291 47.4307C77.6921 46.7881 78.248 46.4668 78.959 46.4668C79.196 46.4668 79.3919 46.4987 79.5469 46.5625L79.54 48.1211ZM84.7354 51.9902C84.7354 51.694 84.6123 51.4684 84.3662 51.3135C84.1247 51.1585 83.7214 51.0218 83.1562 50.9033C82.5911 50.7848 82.1195 50.6344 81.7412 50.4521C80.9118 50.0511 80.4971 49.4701 80.4971 48.709C80.4971 48.071 80.766 47.5378 81.3037 47.1094C81.8415 46.681 82.5251 46.4668 83.3545 46.4668C84.2386 46.4668 84.9518 46.6855 85.4941 47.123C86.041 47.5605 86.3145 48.1279 86.3145 48.8252H84.6533C84.6533 48.5062 84.5348 48.2419 84.2979 48.0322C84.0609 47.818 83.7464 47.7109 83.3545 47.7109C82.9899 47.7109 82.6914 47.7952 82.459 47.9639C82.2311 48.1325 82.1172 48.3581 82.1172 48.6406C82.1172 48.8958 82.2243 49.0941 82.4385 49.2354C82.6527 49.3766 83.0856 49.5202 83.7373 49.666C84.389 49.8073 84.8994 49.9782 85.2686 50.1787C85.6423 50.3747 85.918 50.6117 86.0957 50.8896C86.278 51.1676 86.3691 51.5049 86.3691 51.9014C86.3691 52.5667 86.0934 53.1068 85.542 53.5215C84.9906 53.9316 84.2682 54.1367 83.375 54.1367C82.7689 54.1367 82.2288 54.0273 81.7549 53.8086C81.2809 53.5898 80.9118 53.2891 80.6475 52.9062C80.3831 52.5234 80.251 52.111 80.251 51.6689H81.8643C81.887 52.0609 82.0352 52.3639 82.3086 52.5781C82.582 52.7878 82.9443 52.8926 83.3955 52.8926C83.833 52.8926 84.1657 52.8105 84.3936 52.6465C84.6214 52.4779 84.7354 52.2591 84.7354 51.9902ZM89.5889 54H87.9277V46.6035H89.5889V54ZM87.8252 44.6826C87.8252 44.4274 87.9049 44.2155 88.0645 44.0469C88.2285 43.8783 88.4609 43.7939 88.7617 43.7939C89.0625 43.7939 89.2949 43.8783 89.459 44.0469C89.623 44.2155 89.7051 44.4274 89.7051 44.6826C89.7051 44.9333 89.623 45.1429 89.459 45.3115C89.2949 45.4756 89.0625 45.5576 88.7617 45.5576C88.4609 45.5576 88.2285 45.4756 88.0645 45.3115C87.9049 45.1429 87.8252 44.9333 87.8252 44.6826ZM93.4854 44.8057V46.6035H94.791V47.834H93.4854V51.9629C93.4854 52.2454 93.54 52.4505 93.6494 52.5781C93.7633 52.7012 93.9639 52.7627 94.251 52.7627C94.4424 52.7627 94.6361 52.7399 94.832 52.6943V53.9795C94.4538 54.0843 94.0892 54.1367 93.7383 54.1367C92.4622 54.1367 91.8242 53.4326 91.8242 52.0244V47.834H90.6074V46.6035H91.8242V44.8057H93.4854ZM98.6533 51.6211L100.157 46.6035H101.928L98.9883 55.1211C98.5371 56.3652 97.7715 56.9873 96.6914 56.9873C96.4499 56.9873 96.1833 56.9463 95.8916 56.8643V55.5791L96.2061 55.5996C96.6253 55.5996 96.9398 55.5221 97.1494 55.3672C97.3636 55.2168 97.5322 54.9616 97.6553 54.6016L97.8945 53.9658L95.2969 46.6035H97.0879L98.6533 51.6211ZM106.063 50.2334C106.063 49.5088 106.207 48.8571 106.494 48.2783C106.781 47.695 107.185 47.2484 107.704 46.9385C108.224 46.624 108.821 46.4668 109.495 46.4668C110.493 46.4668 111.302 46.7881 111.922 47.4307C112.546 48.0732 112.883 48.9255 112.934 49.9873L112.94 50.377C112.94 51.1061 112.799 51.7578 112.517 52.332C112.239 52.9062 111.838 53.3506 111.313 53.665C110.794 53.9795 110.192 54.1367 109.509 54.1367C108.465 54.1367 107.629 53.7904 107 53.0977C106.376 52.4004 106.063 51.473 106.063 50.3154V50.2334ZM107.725 50.377C107.725 51.138 107.882 51.735 108.196 52.168C108.511 52.5964 108.948 52.8105 109.509 52.8105C110.069 52.8105 110.505 52.5918 110.814 52.1543C111.129 51.7168 111.286 51.0765 111.286 50.2334C111.286 49.486 111.124 48.8936 110.801 48.4561C110.482 48.0186 110.047 47.7998 109.495 47.7998C108.953 47.7998 108.522 48.0163 108.203 48.4492C107.884 48.8776 107.725 49.5202 107.725 50.377ZM114.93 54V47.834H113.802V46.6035H114.93V45.9268C114.93 45.1064 115.158 44.473 115.613 44.0264C116.069 43.5798 116.707 43.3564 117.527 43.3564C117.819 43.3564 118.129 43.3975 118.457 43.4795L118.416 44.7783C118.234 44.7419 118.022 44.7236 117.78 44.7236C116.987 44.7236 116.591 45.1315 116.591 45.9473V46.6035H118.095V47.834H116.591V54H114.93ZM124.685 50.3018V54H122.955V44.0469H126.763C127.875 44.0469 128.757 44.3363 129.408 44.915C130.064 45.4938 130.393 46.2594 130.393 47.2119C130.393 48.1872 130.071 48.946 129.429 49.4883C128.791 50.0306 127.895 50.3018 126.742 50.3018H124.685ZM124.685 48.9141H126.763C127.378 48.9141 127.847 48.7705 128.171 48.4834C128.494 48.1917 128.656 47.7725 128.656 47.2256C128.656 46.6878 128.492 46.2594 128.164 45.9404C127.836 45.6169 127.385 45.4505 126.811 45.4414H124.685V48.9141ZM133.387 47.4102C133.929 46.7812 134.615 46.4668 135.444 46.4668C137.021 46.4668 137.821 47.3669 137.844 49.167V54H136.183V49.2285C136.183 48.7181 136.071 48.3581 135.848 48.1484C135.629 47.9342 135.305 47.8271 134.877 47.8271C134.212 47.8271 133.715 48.1234 133.387 48.7158V54H131.726V43.5H133.387V47.4102ZM141.07 46.6035L141.118 47.458C141.665 46.7972 142.383 46.4668 143.271 46.4668C144.812 46.4668 145.596 47.3486 145.623 49.1123V54H143.962V49.208C143.962 48.7386 143.859 48.3923 143.654 48.1689C143.454 47.9411 143.123 47.8271 142.663 47.8271C141.993 47.8271 141.494 48.1302 141.166 48.7363V54H139.505V46.6035H141.07ZM147.011 50.2334C147.011 49.5088 147.154 48.8571 147.441 48.2783C147.729 47.695 148.132 47.2484 148.651 46.9385C149.171 46.624 149.768 46.4668 150.442 46.4668C151.44 46.4668 152.249 46.7881 152.869 47.4307C153.493 48.0732 153.831 48.9255 153.881 49.9873L153.888 50.377C153.888 51.1061 153.746 51.7578 153.464 52.332C153.186 52.9062 152.785 53.3506 152.261 53.665C151.741 53.9795 151.14 54.1367 150.456 54.1367C149.412 54.1367 148.576 53.7904 147.947 53.0977C147.323 52.4004 147.011 51.473 147.011 50.3154V50.2334ZM148.672 50.377C148.672 51.138 148.829 51.735 149.144 52.168C149.458 52.5964 149.896 52.8105 150.456 52.8105C151.017 52.8105 151.452 52.5918 151.762 52.1543C152.076 51.7168 152.233 51.0765 152.233 50.2334C152.233 49.486 152.072 48.8936 151.748 48.4561C151.429 48.0186 150.994 47.7998 150.442 47.7998C149.9 47.7998 149.469 48.0163 149.15 48.4492C148.831 48.8776 148.672 49.5202 148.672 50.377ZM156.854 46.6035L156.902 47.376C157.422 46.7699 158.133 46.4668 159.035 46.4668C160.024 46.4668 160.701 46.8451 161.065 47.6016C161.603 46.8451 162.36 46.4668 163.335 46.4668C164.151 46.4668 164.757 46.6924 165.153 47.1436C165.554 47.5947 165.759 48.2601 165.769 49.1396V54H164.107V49.1875C164.107 48.7181 164.005 48.374 163.8 48.1553C163.595 47.9365 163.255 47.8271 162.781 47.8271C162.403 47.8271 162.093 47.9297 161.852 48.1348C161.615 48.3353 161.448 48.5996 161.353 48.9277L161.359 54H159.698V49.1328C159.675 48.2624 159.231 47.8271 158.365 47.8271C157.7 47.8271 157.228 48.0983 156.95 48.6406V54H155.289V46.6035H156.854ZM172.851 50.3018V54H171.121V44.0469H174.929C176.041 44.0469 176.923 44.3363 177.574 44.915C178.23 45.4938 178.559 46.2594 178.559 47.2119C178.559 48.1872 178.237 48.946 177.595 49.4883C176.957 50.0306 176.061 50.3018 174.908 50.3018H172.851ZM172.851 48.9141H174.929C175.544 48.9141 176.013 48.7705 176.337 48.4834C176.66 48.1917 176.822 47.7725 176.822 47.2256C176.822 46.6878 176.658 46.2594 176.33 45.9404C176.002 45.6169 175.551 45.4505 174.977 45.4414H172.851V48.9141ZM183.077 54.1367C182.024 54.1367 181.17 53.8063 180.514 53.1455C179.862 52.4801 179.536 51.596 179.536 50.4932V50.2881C179.536 49.5498 179.677 48.8913 179.96 48.3125C180.247 47.7292 180.648 47.2757 181.163 46.9521C181.678 46.6286 182.252 46.4668 182.886 46.4668C183.893 46.4668 184.67 46.7881 185.217 47.4307C185.768 48.0732 186.044 48.9824 186.044 50.1582V50.8281H181.211C181.261 51.4388 181.464 51.9219 181.819 52.2773C182.179 52.6328 182.631 52.8105 183.173 52.8105C183.934 52.8105 184.554 52.5029 185.032 51.8877L185.928 52.7422C185.632 53.1842 185.235 53.5283 184.738 53.7744C184.246 54.016 183.692 54.1367 183.077 54.1367ZM182.879 47.7998C182.423 47.7998 182.054 47.9593 181.771 48.2783C181.493 48.5973 181.316 49.0417 181.238 49.6113H184.403V49.4883C184.367 48.9323 184.219 48.513 183.959 48.2305C183.699 47.9434 183.339 47.7998 182.879 47.7998ZM188.881 46.6035L188.929 47.458C189.476 46.7972 190.193 46.4668 191.082 46.4668C192.622 46.4668 193.406 47.3486 193.434 49.1123V54H191.772V49.208C191.772 48.7386 191.67 48.3923 191.465 48.1689C191.264 47.9411 190.934 47.8271 190.474 47.8271C189.804 47.8271 189.305 48.1302 188.977 48.7363V54H187.315V46.6035H188.881ZM196.77 47.4102C197.312 46.7812 197.998 46.4668 198.827 46.4668C200.404 46.4668 201.204 47.3669 201.227 49.167V54H199.565V49.2285C199.565 48.7181 199.454 48.3581 199.23 48.1484C199.012 47.9342 198.688 47.8271 198.26 47.8271C197.594 47.8271 197.098 48.1234 196.77 48.7158V54H195.108V43.5H196.77V47.4102Z" fill="white"/>
</svg>
