<svg width="191" height="53" viewBox="0 0 191 53" fill="none" xmlns="http://www.w3.org/2000/svg">
<path d="M5.85938 22.0703H9.38672V17.9688H6.45703V15.0391H9.38672V13.293L7.60547 11.4414L9.96094 7.43359H13.4883V10.3633H10.0781L13.4883 13.293V22.0703C13.4883 24.0234 12.5039 25 10.5352 25H4.67578C2.73047 25 1.75781 24.0234 1.75781 22.0703V13.293L0 11.4414L2.35547 7.43359H5.85938V10.3633H2.47266L5.85938 13.293V22.0703ZM36.3047 10.3633V25H32.2031V10.3633H28.6992V22.0703C28.6992 24.0234 27.7148 25 25.7461 25H19.8867C17.9414 25 16.9688 24.0234 16.9688 22.0703V13.293L15.2109 11.4414L17.5664 7.43359H21.0703V10.3633H17.6836L21.0703 13.293V22.0703H24.5977V10.3633C24.5977 8.41016 25.5742 7.43359 27.5273 7.43359H33.375C35.3281 7.43359 36.3047 8.41016 36.3047 10.3633ZM43.9453 10.3633V25H39.8438V10.3633H36.9141V7.43359H41.0156C42.9688 7.43359 43.9453 8.41016 43.9453 10.3633ZM45.6797 11.4414L48.0352 7.43359H49.7812V6.26172H51.5391V10.3633H48.1523L51.5391 13.293V25H46.2539V22.0703H47.4375V13.293L45.6797 11.4414ZM53.9531 4.50391V5.65234H43.418V4.50391C43.418 3.31641 43.7695 2.4375 44.4727 1.86719C45.168 1.27344 46.2227 0.976562 47.6367 0.976562C48.8164 0.976562 49.9297 1.27344 50.9766 1.86719C52.0391 2.44531 53.0312 3.32422 53.9531 4.50391ZM47.6367 3.33203C47.1602 3.33203 46.8086 3.42578 46.582 3.61328C46.3477 3.80859 46.2305 4.10547 46.2305 4.50391H51.7266C51.3125 4.11328 50.7578 3.81641 50.0625 3.61328C49.375 3.42578 48.5664 3.33203 47.6367 3.33203ZM66.75 10.3633V12.6836C66.75 13.4727 66.168 13.8672 65.0039 13.8672H62.0742V11.5117H62.6484V10.3633H59.1445V13.293C59.1445 14.2852 59.9844 14.9805 61.6641 15.3789L63.2695 15.7305C63.3555 15.6445 63.4609 15.5469 63.5859 15.4375C63.7188 15.3203 63.8711 15.1875 64.043 15.0391H66.75V17.4648C66.75 18.0273 66.3516 18.4336 65.5547 18.6836L66.75 19.2695V22.0703C66.75 24.0234 65.7773 25 63.832 25H57.9727C56.0195 25 55.043 24.0234 55.043 22.0703V17.7227L59.1445 18.543V22.0703H62.6484V18.1328L59.1445 17.2773C56.4102 16.668 55.043 15.3398 55.043 13.293V10.3633C55.043 8.41016 56.0195 7.43359 57.9727 7.43359H63.832C65.7773 7.43359 66.75 8.41016 66.75 10.3633ZM67.3359 25.9609V27.9531H66.7617V29.9453H70.2656V13.293L68.5195 11.4414L70.8633 7.43359H74.3672V10.3633H70.9922L74.3672 13.293V29.9453C74.3672 31.2891 73.3945 31.9609 71.4492 31.9609H65.5898C63.6367 31.9609 62.6602 31.2891 62.6602 29.9453V25.9609H67.3359ZM82.0078 10.3633V25H77.9062V10.3633H74.9766V7.43359H79.0781C81.0312 7.43359 82.0078 8.41016 82.0078 10.3633ZM97.1953 10.3633V22.0703H100.723V13.293L98.9766 11.4414L101.309 7.43359H104.836V10.3633H101.426L104.836 13.293V22.0703C104.836 24.0234 103.859 25 101.906 25H96.0234C94.0703 25 93.0938 24.0234 93.0938 22.0703V10.3633H89.5898V22.0703H90.7734V25H85.4883V10.3633C85.4883 8.41016 86.4648 7.43359 88.418 7.43359H94.2773C96.2227 7.43359 97.1953 8.41016 97.1953 10.3633ZM103.98 5.65234H96.0586V1.55078H100.664V2.72266H99.375V3.33203H103.301V0.976562H106.594V3.90625C106.594 5.07031 105.723 5.65234 103.98 5.65234ZM108.34 22.0703V7.43359H113.625V10.3633H112.441V22.0703H115.945V13.293L114.199 11.4414L116.543 7.43359H120.047V10.3633H116.672L120.047 13.293V22.0703H123.574V13.293L121.828 11.4414L124.16 7.43359H127.688V10.3633H124.277L127.688 13.293V22.0703C127.688 24.0234 126.711 25 124.758 25H111.27C109.316 25 108.34 24.0234 108.34 22.0703ZM129.445 11.4414L131.801 7.43359H133.547V6.26172H135.305V10.3633H131.918L135.305 13.293V25H130.02V22.0703H131.203V13.293L129.445 11.4414ZM137.719 4.50391V5.65234H127.184V4.50391C127.184 3.31641 127.535 2.4375 128.238 1.86719C128.934 1.27344 129.988 0.976562 131.402 0.976562C132.582 0.976562 133.695 1.27344 134.742 1.86719C135.805 2.44531 136.797 3.32422 137.719 4.50391ZM131.402 3.33203C130.926 3.33203 130.574 3.42578 130.348 3.61328C130.113 3.80859 129.996 4.10547 129.996 4.50391H135.492C135.078 4.11328 134.523 3.81641 133.828 3.61328C133.141 3.42578 132.332 3.33203 131.402 3.33203ZM138.809 10.5039L140.566 7.43359H148.77V10.3633H141.855L143.895 12.1094H147.598C149.543 12.1094 150.516 13.0859 150.516 15.0391V22.0703H154.043V13.293L152.297 11.4414L154.629 7.43359H158.156V10.3633H154.746L158.156 13.293V22.0703C158.156 24.0234 157.18 25 155.227 25H149.344C147.391 25 146.414 24.0234 146.414 22.0703V15.0391H142.91V22.0703H144.094V25H138.809V15.0391C138.809 13.4766 139.418 12.5391 140.637 12.2266L138.809 10.5039ZM151.594 31.9609C149.695 31.9609 148.457 31.7422 147.879 31.3047C147.316 30.8594 147.035 30.2461 147.035 29.4648V28.457C147.488 28.3711 148.008 28.25 148.594 28.0938C149.172 27.9453 149.82 27.7695 150.539 27.5664C151.961 27.1523 153.137 26.6172 154.066 25.9609H157.57V26.9688C157.57 28.0625 157.301 28.9805 156.762 29.7227C156.215 30.4648 155.492 31.0234 154.594 31.3984C153.688 31.7734 152.688 31.9609 151.594 31.9609ZM150.539 29.418C150.539 29.7617 150.652 30.0234 150.879 30.2031C151.082 30.3672 151.402 30.4492 151.84 30.4492C152.707 30.4492 153.297 30.2344 153.609 29.8047C153.914 29.3438 154.066 28.6445 154.066 27.707C153.676 28.1211 153.148 28.4766 152.484 28.7734C151.852 29.0469 151.203 29.2617 150.539 29.418ZM173.367 7.43359V10.3633H161.66V7.43359H173.367ZM173.367 15.0391V25H169.266V15.0391H165.762V25H161.66V15.0391C161.66 13.0859 162.637 12.1094 164.59 12.1094H170.449C172.395 12.1094 173.367 13.0859 173.367 15.0391ZM180.984 22.0703H184.512V17.9688H181.582V15.0391H184.512V13.293L182.73 11.4414L185.086 7.43359H188.613V10.3633H185.203L188.613 13.293V22.0703C188.613 24.0234 187.629 25 185.66 25H179.801C177.855 25 176.883 24.0234 176.883 22.0703V13.293L175.125 11.4414L177.48 7.43359H180.984V10.3633H177.598L180.984 13.293V22.0703ZM185.18 30.4961L176.297 30.5195V28.0703H185.086V25.9609H188.613V27.4727L187.172 28.0938C187.453 28.1016 187.73 28.1836 188.004 28.3398C188.379 28.4805 188.672 28.707 188.883 29.0195C189.086 29.332 189.188 29.6641 189.188 30.0156C189.188 31.3125 188.531 31.9609 187.219 31.9609C185.906 31.9609 185.227 31.4727 185.18 30.4961Z" fill="white"/>
<path d="M2.80957 39.0673V49.0204H0.806641V39.0673H2.80957ZM5.92676 43.2987V44.953H2.30371V43.2987H5.92676ZM6.30957 39.0673V40.7284H2.30371V39.0673H6.30957ZM9.76855 40.8446L7.62891 49.0204H5.5166L8.62695 39.0673H9.94629L9.76855 40.8446ZM11.457 49.0204L9.30371 40.8446L9.10547 39.0673H10.4453L13.583 49.0204H11.457ZM11.5322 45.3085V46.9696H7.04102V45.3085H11.5322ZM19.127 45.705H21.1162C21.0889 46.4524 20.9385 47.0835 20.665 47.5985C20.3916 48.1089 20.002 48.4963 19.4961 48.7606C18.9948 49.0249 18.3887 49.1571 17.6777 49.1571C17.1263 49.1571 16.6364 49.066 16.208 48.8837C15.7796 48.6968 15.415 48.4234 15.1143 48.0634C14.8135 47.7033 14.5856 47.259 14.4307 46.7303C14.2803 46.1971 14.2051 45.5842 14.2051 44.8915V43.203C14.2051 42.5103 14.2848 41.8973 14.4443 41.3641C14.6084 40.8309 14.8408 40.3843 15.1416 40.0243C15.4469 39.6597 15.8138 39.3863 16.2422 39.204C16.6751 39.0171 17.1628 38.9237 17.7051 38.9237C18.4297 38.9237 19.0358 39.0604 19.5234 39.3339C20.0111 39.6073 20.387 40.0061 20.6514 40.5302C20.9202 41.0497 21.082 41.6854 21.1367 42.4374H19.1406C19.127 41.9634 19.0723 41.592 18.9766 41.3231C18.8854 41.0497 18.7396 40.8583 18.5391 40.7489C18.3385 40.635 18.0605 40.578 17.7051 40.578C17.4408 40.578 17.2129 40.6259 17.0215 40.7216C16.8301 40.8127 16.6729 40.9608 16.5498 41.1659C16.4268 41.371 16.3356 41.6399 16.2764 41.9725C16.2217 42.3052 16.1943 42.7108 16.1943 43.1893V44.8915C16.1943 45.3609 16.2194 45.7619 16.2695 46.0946C16.3197 46.4227 16.3994 46.6916 16.5088 46.9012C16.6182 47.1109 16.7663 47.2635 16.9531 47.3593C17.1445 47.455 17.3861 47.5028 17.6777 47.5028C18.015 47.5028 18.2861 47.4527 18.4912 47.3524C18.7008 47.2522 18.8558 47.0721 18.9561 46.8124C19.0563 46.5526 19.1133 46.1835 19.127 45.705ZM26.8379 39.0673H28.834V45.9032C28.834 46.6688 28.6927 47.2932 28.4102 47.7762C28.1322 48.2548 27.7471 48.6057 27.2549 48.829C26.7627 49.0477 26.1999 49.1571 25.5664 49.1571C24.9284 49.1571 24.361 49.0477 23.8643 48.829C23.3675 48.6057 22.9801 48.2548 22.7021 47.7762C22.4287 47.2932 22.292 46.6688 22.292 45.9032V39.0673H24.2881V45.9032C24.2881 46.3361 24.3359 46.6688 24.4316 46.9012C24.5319 47.1337 24.6755 47.2932 24.8623 47.3798C25.0537 47.4618 25.2884 47.5028 25.5664 47.5028C25.849 47.5028 26.0814 47.4618 26.2637 47.3798C26.4505 47.2932 26.5918 47.1337 26.6875 46.9012C26.7878 46.6688 26.8379 46.3361 26.8379 45.9032V39.0673ZM35.8887 47.3661V49.0204H31.7529V47.3661H35.8887ZM32.3682 39.0673V49.0204H30.3652V39.0673H32.3682ZM39.6074 39.0673V49.0204H37.6182V39.0673H39.6074ZM42.082 39.0673V40.7284H35.1914V39.0673H42.082ZM44.8301 39.0673L46.3477 43.5516L47.8516 39.0673H50.0322L47.3525 45.4042V49.0204H45.3359V45.4042L42.6562 39.0673H44.8301ZM61.1748 43.2714V44.9325C61.1748 45.6343 61.0882 46.2496 60.915 46.7782C60.7464 47.3023 60.5049 47.7421 60.1904 48.0975C59.8805 48.4484 59.5046 48.7128 59.0625 48.8905C58.625 49.0682 58.1396 49.1571 57.6064 49.1571C57.0732 49.1571 56.5856 49.0682 56.1436 48.8905C55.7061 48.7128 55.3278 48.4484 55.0088 48.0975C54.6943 47.7421 54.4505 47.3023 54.2773 46.7782C54.1042 46.2496 54.0176 45.6343 54.0176 44.9325V43.2714C54.0176 42.5513 54.1019 41.9224 54.2705 41.3846C54.4391 40.8423 54.6829 40.3912 55.002 40.0311C55.321 39.6665 55.6992 39.3931 56.1367 39.2108C56.5742 39.024 57.0596 38.9305 57.5928 38.9305C58.126 38.9305 58.6113 39.024 59.0488 39.2108C59.4863 39.3931 59.8646 39.6665 60.1836 40.0311C60.5026 40.3912 60.7464 40.8423 60.915 41.3846C61.0882 41.9224 61.1748 42.5513 61.1748 43.2714ZM59.1855 44.9325V43.2577C59.1855 42.7837 59.1514 42.3804 59.083 42.0477C59.0146 41.7105 58.9121 41.4348 58.7754 41.2206C58.6387 41.0064 58.4723 40.8492 58.2764 40.7489C58.0804 40.6486 57.8525 40.5985 57.5928 40.5985C57.333 40.5985 57.1029 40.6486 56.9023 40.7489C56.7064 40.8492 56.54 41.0064 56.4033 41.2206C56.2712 41.4348 56.1709 41.7105 56.1025 42.0477C56.0387 42.3804 56.0068 42.7837 56.0068 43.2577V44.9325C56.0068 45.3882 56.041 45.7779 56.1094 46.1014C56.1777 46.425 56.2803 46.6893 56.417 46.8944C56.5537 47.0995 56.7201 47.2522 56.916 47.3524C57.1165 47.4481 57.3467 47.496 57.6064 47.496C57.8617 47.496 58.0872 47.4481 58.2832 47.3524C58.4837 47.2522 58.6501 47.0995 58.7822 46.8944C58.9144 46.6893 59.0146 46.425 59.083 46.1014C59.1514 45.7779 59.1855 45.3882 59.1855 44.9325ZM64.6338 39.0673V49.0204H62.6309V39.0673H64.6338ZM67.751 43.2987V44.953H64.1279V43.2987H67.751ZM68.1338 39.0673V40.7284H64.1279V39.0673H68.1338ZM78.2373 47.3661V49.0204H73.9102V47.3661H78.2373ZM74.5322 39.0673V49.0204H72.5293V39.0673H74.5322ZM77.6562 43.1005V44.7069H73.9102V43.1005H77.6562ZM78.2236 39.0673V40.7284H73.9102V39.0673H78.2236ZM86.3652 39.0673V49.0204H84.4307L81.3066 42.7928V49.0204H79.4062V39.0673H81.3135L84.4648 45.3632V39.0673H86.3652ZM94.7393 43.7909V47.8925C94.598 48.0428 94.3906 48.2183 94.1172 48.4188C93.8483 48.6148 93.4951 48.788 93.0576 48.9384C92.6247 49.0842 92.096 49.1571 91.4717 49.1571C90.9202 49.1571 90.4189 49.0705 89.9678 48.8973C89.5212 48.7242 89.1361 48.4621 88.8125 48.1112C88.4935 47.7557 88.2497 47.3137 88.0811 46.785C87.9124 46.2518 87.8281 45.6206 87.8281 44.8915V43.1962C87.8281 42.4761 87.9079 41.8495 88.0674 41.3163C88.2314 40.7785 88.4684 40.3319 88.7783 39.9764C89.0882 39.621 89.4574 39.3566 89.8857 39.1835C90.3187 39.0103 90.8063 38.9237 91.3486 38.9237C92.096 38.9237 92.709 39.049 93.1875 39.2997C93.6706 39.5503 94.0352 39.9218 94.2812 40.4139C94.5319 40.9061 94.6823 41.51 94.7324 42.2255H92.7979C92.766 41.8062 92.6953 41.4781 92.5859 41.2411C92.4811 41.0041 92.333 40.8355 92.1416 40.7352C91.9502 40.6304 91.7018 40.578 91.3965 40.578C91.1322 40.578 90.902 40.6259 90.7061 40.7216C90.5101 40.8127 90.346 40.9631 90.2139 41.1727C90.0817 41.3824 89.9837 41.6512 89.9199 41.9794C89.8561 42.3075 89.8242 42.7085 89.8242 43.1825V44.8915C89.8242 45.3609 89.8607 45.7619 89.9336 46.0946C90.0065 46.4273 90.1136 46.6984 90.2549 46.9081C90.4007 47.1177 90.583 47.2704 90.8018 47.3661C91.0251 47.4572 91.2871 47.5028 91.5879 47.5028C91.8294 47.5028 92.0231 47.4777 92.1689 47.4276C92.3148 47.3775 92.431 47.3251 92.5176 47.2704C92.6087 47.2111 92.6839 47.1656 92.7432 47.1337V45.3016H91.3145V43.7909H94.7393ZM98.2598 39.0673V49.0204H96.2705V39.0673H98.2598ZM106.928 39.0673V49.0204H104.993L101.869 42.7928V49.0204H99.9688V39.0673H101.876L105.027 45.3632V39.0673H106.928ZM114.249 47.3661V49.0204H109.922V47.3661H114.249ZM110.544 39.0673V49.0204H108.541V39.0673H110.544ZM113.668 43.1005V44.7069H109.922V43.1005H113.668ZM114.235 39.0673V40.7284H109.922V39.0673H114.235ZM121.126 47.3661V49.0204H116.799V47.3661H121.126ZM117.421 39.0673V49.0204H115.418V39.0673H117.421ZM120.545 43.1005V44.7069H116.799V43.1005H120.545ZM121.112 39.0673V40.7284H116.799V39.0673H121.112ZM122.302 39.0673H125.494C126.16 39.0673 126.727 39.1812 127.196 39.4091C127.666 39.6369 128.026 39.9742 128.276 40.4208C128.527 40.8674 128.652 41.4188 128.652 42.0751C128.652 42.6128 128.579 43.0731 128.434 43.4559C128.288 43.8342 128.08 44.1509 127.812 44.4061C127.543 44.6568 127.221 44.8573 126.848 45.0077L126.239 45.37H123.648L123.642 43.7089H125.439C125.713 43.7089 125.938 43.6496 126.116 43.5311C126.299 43.4081 126.433 43.2372 126.52 43.0184C126.611 42.7951 126.656 42.5354 126.656 42.2391C126.656 41.9247 126.615 41.6558 126.533 41.4325C126.456 41.2046 126.33 41.0315 126.157 40.913C125.989 40.7899 125.768 40.7284 125.494 40.7284H124.305V49.0204H122.302V39.0673ZM126.82 49.0204L124.995 44.5839L127.094 44.577L128.96 48.9247V49.0204H126.82ZM132.125 39.0673V49.0204H130.136V39.0673H132.125ZM140.793 39.0673V49.0204H138.858L135.734 42.7928V49.0204H133.834V39.0673H135.741L138.893 45.3632V39.0673H140.793ZM149.167 43.7909V47.8925C149.026 48.0428 148.818 48.2183 148.545 48.4188C148.276 48.6148 147.923 48.788 147.485 48.9384C147.052 49.0842 146.524 49.1571 145.899 49.1571C145.348 49.1571 144.847 49.0705 144.396 48.8973C143.949 48.7242 143.564 48.4621 143.24 48.1112C142.921 47.7557 142.677 47.3137 142.509 46.785C142.34 46.2518 142.256 45.6206 142.256 44.8915V43.1962C142.256 42.4761 142.336 41.8495 142.495 41.3163C142.659 40.7785 142.896 40.3319 143.206 39.9764C143.516 39.621 143.885 39.3566 144.313 39.1835C144.746 39.0103 145.234 38.9237 145.776 38.9237C146.524 38.9237 147.137 39.049 147.615 39.2997C148.098 39.5503 148.463 39.9218 148.709 40.4139C148.96 40.9061 149.11 41.51 149.16 42.2255H147.226C147.194 41.8062 147.123 41.4781 147.014 41.2411C146.909 41.0041 146.761 40.8355 146.569 40.7352C146.378 40.6304 146.13 40.578 145.824 40.578C145.56 40.578 145.33 40.6259 145.134 40.7216C144.938 40.8127 144.774 40.9631 144.642 41.1727C144.509 41.3824 144.411 41.6512 144.348 41.9794C144.284 42.3075 144.252 42.7085 144.252 43.1825V44.8915C144.252 45.3609 144.288 45.7619 144.361 46.0946C144.434 46.4273 144.541 46.6984 144.683 46.9081C144.828 47.1177 145.011 47.2704 145.229 47.3661C145.453 47.4572 145.715 47.5028 146.016 47.5028C146.257 47.5028 146.451 47.4777 146.597 47.4276C146.743 47.3775 146.859 47.3251 146.945 47.2704C147.036 47.2111 147.112 47.1656 147.171 47.1337V45.3016H145.742V43.7909H149.167Z" fill="white"/>
</svg>
