<svg width="64" height="64" viewBox="0 0 64 64" fill="none" xmlns="http://www.w3.org/2000/svg">
<path fill-rule="evenodd" clip-rule="evenodd" d="M6.58367 26.584C6.76945 26.3978 6.99015 26.25 7.23313 26.1492C7.47612 26.0484 7.7366 25.9965 7.99967 25.9965C8.26274 25.9965 8.52322 26.0484 8.7662 26.1492C9.00918 26.25 9.22989 26.3978 9.41567 26.584L31.9997 49.172L54.5837 26.584C54.9592 26.2085 55.4686 25.9975 55.9997 25.9975C56.5308 25.9975 57.0401 26.2085 57.4157 26.584C57.7912 26.9596 58.0022 27.4689 58.0022 28C58.0022 28.5311 57.7912 29.0405 57.4157 29.416L33.4157 53.416C33.2299 53.6023 33.0092 53.7501 32.7662 53.8509C32.5232 53.9517 32.2627 54.0036 31.9997 54.0036C31.7366 54.0036 31.4761 53.9517 31.2331 53.8509C30.9902 53.7501 30.7694 53.6023 30.5837 53.416L6.58367 29.416C6.39742 29.2303 6.24964 29.0096 6.14882 28.7666C6.04799 28.5236 5.99609 28.2631 5.99609 28C5.99609 27.737 6.04799 27.4765 6.14882 27.2335C6.24964 26.9905 6.39742 26.7698 6.58367 26.584Z" fill="white"/>
<path fill-rule="evenodd" clip-rule="evenodd" d="M6.58367 10.584C6.76945 10.3978 6.99015 10.25 7.23313 10.1492C7.47612 10.0484 7.7366 9.99646 7.99967 9.99646C8.26274 9.99646 8.52322 10.0484 8.7662 10.1492C9.00918 10.25 9.22989 10.3978 9.41567 10.584L31.9997 33.172L54.5837 10.584C54.7696 10.3981 54.9904 10.2506 55.2333 10.1499C55.4763 10.0493 55.7367 9.99751 55.9997 9.99751C56.2626 9.99751 56.523 10.0493 56.766 10.1499C57.009 10.2506 57.2297 10.3981 57.4157 10.584C57.6016 10.77 57.7491 10.9907 57.8498 11.2337C57.9504 11.4767 58.0022 11.7371 58.0022 12C58.0022 12.263 57.9504 12.5234 57.8498 12.7664C57.7491 13.0093 57.6016 13.2301 57.4157 13.416L33.4157 37.416C33.2299 37.6023 33.0092 37.7501 32.7662 37.8509C32.5232 37.9517 32.2627 38.0036 31.9997 38.0036C31.7366 38.0036 31.4761 37.9517 31.2331 37.8509C30.9902 37.7501 30.7694 37.6023 30.5837 37.416L6.58367 13.416C6.39742 13.2303 6.24964 13.0096 6.14882 12.7666C6.04799 12.5236 5.99609 12.2631 5.99609 12C5.99609 11.737 6.04799 11.4765 6.14882 11.2335C6.24964 10.9905 6.39742 10.7698 6.58367 10.584Z" fill="white"/>
</svg>
